<svg xmlns="http://www.w3.org/2000/svg" viewBox="0 0 13.52 10.82"><defs><style>.cls-1{fill:#fff;}</style></defs><title>ricerca avanzata</title><g id="Livello_2" data-name="Livello 2"><g id="_1170px_grid" data-name="1170px grid"><path class="cls-1" d="M.26,1.94h8a1.68,1.68,0,0,0,3.31,0h1.71a.24.24,0,0,0,.26-.23.24.24,0,0,0-.26-.23h-1.7a1.68,1.68,0,0,0-3.34,0h-8A.24.24,0,0,0,0,1.71.24.24,0,0,0,.26,1.94ZM9.9.47A1.17,1.17,0,1,1,8.73,1.64,1.17,1.17,0,0,1,9.9.47Z"/><path class="cls-1" d="M13.27,5.24H6.43A1.64,1.64,0,0,0,4.76,3.76,1.64,1.64,0,0,0,3.1,5.24H.26a.23.23,0,1,0,0,.45H3.11a1.68,1.68,0,0,0,3.31,0h6.85a.23.23,0,1,0,0-.45ZM4.76,6.57A1.17,1.17,0,1,1,5.94,5.39,1.17,1.17,0,0,1,4.76,6.57Z"/><path class="cls-1" d="M13.27,9H9.86A1.68,1.68,0,0,0,6.52,9H.26a.23.23,0,1,0,0,.45H6.54a1.57,1.57,0,0,0,1.65,1.37A1.57,1.57,0,0,0,9.84,9.45h3.43a.23.23,0,1,0,0-.45ZM8.19,10.34A1.17,1.17,0,1,1,9.36,9.17,1.17,1.17,0,0,1,8.19,10.34Z"/></g></g></svg>